<svg xmlns="http://www.w3.org/2000/svg" xmlns:xlink="http://www.w3.org/1999/xlink" width="312" zoomAndPan="magnify" viewBox="0 0 234 183.750001" height="245" preserveAspectRatio="xMidYMid meet" version="1.0"><defs><g/><clipPath id="fff5d5ecc4"><path d="M 75.761719 75.085938 L 96.011719 75.085938 L 96.011719 95.335938 L 75.761719 95.335938 Z M 75.761719 75.085938 " clip-rule="nonzero"/></clipPath><clipPath id="6faf913e07"><path d="M 75.761719 88.148438 L 96.011719 88.148438 L 96.011719 108.398438 L 75.761719 108.398438 Z M 75.761719 88.148438 " clip-rule="nonzero"/></clipPath><clipPath id="65c8acef3d"><path d="M 88.824219 75.085938 L 109.074219 75.085938 L 109.074219 95.335938 L 88.824219 95.335938 Z M 88.824219 75.085938 " clip-rule="nonzero"/></clipPath><clipPath id="dc978f3b34"><path d="M 88.824219 88.148438 L 109.074219 88.148438 L 109.074219 108.398438 L 88.824219 108.398438 Z M 88.824219 88.148438 " clip-rule="nonzero"/></clipPath></defs><g clip-path="url(#fff5d5ecc4)"><path fill="#5271ff" d="M 85.886719 75.085938 C 80.292969 75.085938 75.761719 79.617188 75.761719 85.210938 C 75.761719 90.800781 80.292969 95.335938 85.886719 95.335938 C 91.476562 95.335938 96.011719 90.800781 96.011719 85.210938 C 96.011719 79.617188 91.476562 75.085938 85.886719 75.085938 " fill-opacity="1" fill-rule="nonzero"/></g><g clip-path="url(#6faf913e07)"><path fill="#5271ff" d="M 85.886719 88.148438 C 80.292969 88.148438 75.761719 92.683594 75.761719 98.273438 C 75.761719 103.867188 80.292969 108.398438 85.886719 108.398438 C 91.476562 108.398438 96.011719 103.867188 96.011719 98.273438 C 96.011719 92.683594 91.476562 88.148438 85.886719 88.148438 " fill-opacity="1" fill-rule="nonzero"/></g><g clip-path="url(#65c8acef3d)"><path fill="#5271ff" d="M 98.949219 75.085938 C 93.359375 75.085938 88.824219 79.617188 88.824219 85.210938 C 88.824219 90.800781 93.359375 95.335938 98.949219 95.335938 C 104.542969 95.335938 109.074219 90.800781 109.074219 85.210938 C 109.074219 79.617188 104.542969 75.085938 98.949219 75.085938 " fill-opacity="1" fill-rule="nonzero"/></g><g clip-path="url(#dc978f3b34)"><path fill="#5271ff" d="M 98.949219 88.148438 C 93.359375 88.148438 88.824219 92.683594 88.824219 98.273438 C 88.824219 103.867188 93.359375 108.398438 98.949219 108.398438 C 104.542969 108.398438 109.074219 103.867188 109.074219 98.273438 C 109.074219 92.683594 104.542969 88.148438 98.949219 88.148438 " fill-opacity="1" fill-rule="nonzero"/></g><g fill="#ffffff" fill-opacity="1"><g transform="translate(83.342604, 101.318472)"><g><path d="M 2.1875 -18.265625 L 16.03125 -18.265625 C 16.5625 -18.265625 16.953125 -18.203125 17.203125 -18.078125 C 17.453125 -17.953125 17.617188 -17.753906 17.703125 -17.484375 C 17.785156 -17.222656 17.828125 -16.878906 17.828125 -16.453125 C 17.828125 -16.023438 17.785156 -15.679688 17.703125 -15.421875 C 17.617188 -15.160156 17.476562 -14.984375 17.28125 -14.890625 C 16.976562 -14.734375 16.550781 -14.65625 16 -14.65625 L 11.25 -14.65625 L 11.25 -2.140625 C 11.25 -1.753906 11.234375 -1.46875 11.203125 -1.28125 C 11.179688 -1.101562 11.109375 -0.894531 10.984375 -0.65625 C 10.859375 -0.414062 10.640625 -0.242188 10.328125 -0.140625 C 10.015625 -0.046875 9.597656 0 9.078125 0 C 8.566406 0 8.15625 -0.046875 7.84375 -0.140625 C 7.539062 -0.242188 7.328125 -0.414062 7.203125 -0.65625 C 7.078125 -0.894531 7 -1.109375 6.96875 -1.296875 C 6.945312 -1.492188 6.9375 -1.785156 6.9375 -2.171875 L 6.9375 -14.65625 L 2.171875 -14.65625 C 1.640625 -14.65625 1.25 -14.71875 1 -14.84375 C 0.75 -14.96875 0.582031 -15.160156 0.5 -15.421875 C 0.414062 -15.691406 0.375 -16.039062 0.375 -16.46875 C 0.375 -16.90625 0.414062 -17.25 0.5 -17.5 C 0.582031 -17.757812 0.722656 -17.941406 0.921875 -18.046875 C 1.222656 -18.191406 1.644531 -18.265625 2.1875 -18.265625 Z M 2.1875 -18.265625 "/></g></g></g><g fill="#5271ff" fill-opacity="1"><g transform="translate(111.201061, 90.271199)"><g><path d="M 4.1875 0.140625 C 3.519531 0.140625 2.925781 0.0546875 2.40625 -0.109375 C 1.882812 -0.273438 1.394531 -0.5625 0.9375 -0.96875 C 0.6875 -1.1875 0.5625 -1.429688 0.5625 -1.703125 C 0.5625 -1.910156 0.640625 -2.097656 0.796875 -2.265625 C 0.953125 -2.429688 1.144531 -2.515625 1.375 -2.515625 C 1.539062 -2.515625 1.695312 -2.457031 1.84375 -2.34375 C 2.21875 -2.039062 2.578125 -1.816406 2.921875 -1.671875 C 3.273438 -1.535156 3.695312 -1.46875 4.1875 -1.46875 C 4.707031 -1.46875 5.15625 -1.582031 5.53125 -1.8125 C 5.90625 -2.039062 6.09375 -2.328125 6.09375 -2.671875 C 6.09375 -3.097656 5.90625 -3.425781 5.53125 -3.65625 C 5.164062 -3.894531 4.578125 -4.078125 3.765625 -4.203125 C 1.734375 -4.492188 0.71875 -5.441406 0.71875 -7.046875 C 0.71875 -7.628906 0.867188 -8.132812 1.171875 -8.5625 C 1.472656 -9 1.890625 -9.332031 2.421875 -9.5625 C 2.953125 -9.789062 3.546875 -9.90625 4.203125 -9.90625 C 4.785156 -9.90625 5.332031 -9.816406 5.84375 -9.640625 C 6.363281 -9.460938 6.796875 -9.226562 7.140625 -8.9375 C 7.410156 -8.726562 7.546875 -8.484375 7.546875 -8.203125 C 7.546875 -7.992188 7.46875 -7.804688 7.3125 -7.640625 C 7.15625 -7.472656 6.96875 -7.390625 6.75 -7.390625 C 6.613281 -7.390625 6.488281 -7.429688 6.375 -7.515625 C 6.132812 -7.710938 5.796875 -7.890625 5.359375 -8.046875 C 4.929688 -8.210938 4.546875 -8.296875 4.203125 -8.296875 C 3.617188 -8.296875 3.164062 -8.1875 2.84375 -7.96875 C 2.519531 -7.75 2.359375 -7.460938 2.359375 -7.109375 C 2.359375 -6.710938 2.519531 -6.410156 2.84375 -6.203125 C 3.175781 -6.003906 3.695312 -5.835938 4.40625 -5.703125 C 5.207031 -5.566406 5.847656 -5.390625 6.328125 -5.171875 C 6.804688 -4.953125 7.164062 -4.65625 7.40625 -4.28125 C 7.644531 -3.90625 7.765625 -3.40625 7.765625 -2.78125 C 7.765625 -2.1875 7.597656 -1.671875 7.265625 -1.234375 C 6.941406 -0.796875 6.503906 -0.457031 5.953125 -0.21875 C 5.410156 0.0195312 4.820312 0.140625 4.1875 0.140625 Z M 4.1875 0.140625 "/></g></g></g><g fill="#5271ff" fill-opacity="1"><g transform="translate(119.108223, 90.271199)"><g><path d="M 2.484375 -0.84375 C 2.484375 -0.601562 2.40625 -0.398438 2.25 -0.234375 C 2.09375 -0.078125 1.890625 0 1.640625 0 C 1.398438 0 1.203125 -0.078125 1.046875 -0.234375 C 0.890625 -0.398438 0.8125 -0.601562 0.8125 -0.84375 L 0.8125 -6.609375 C 0.8125 -6.859375 0.890625 -7.0625 1.046875 -7.21875 C 1.203125 -7.382812 1.398438 -7.46875 1.640625 -7.46875 C 1.890625 -7.46875 2.09375 -7.382812 2.25 -7.21875 C 2.40625 -7.0625 2.484375 -6.859375 2.484375 -6.609375 Z M 1.625 -8.375 C 1.3125 -8.375 1.085938 -8.421875 0.953125 -8.515625 C 0.828125 -8.617188 0.765625 -8.800781 0.765625 -9.0625 L 0.765625 -9.328125 C 0.765625 -9.585938 0.832031 -9.769531 0.96875 -9.875 C 1.113281 -9.976562 1.335938 -10.03125 1.640625 -10.03125 C 1.960938 -10.03125 2.1875 -9.976562 2.3125 -9.875 C 2.445312 -9.769531 2.515625 -9.585938 2.515625 -9.328125 L 2.515625 -9.0625 C 2.515625 -8.800781 2.445312 -8.617188 2.3125 -8.515625 C 2.175781 -8.421875 1.945312 -8.375 1.625 -8.375 Z M 1.625 -8.375 "/></g></g></g><g fill="#5271ff" fill-opacity="1"><g transform="translate(121.980947, 90.271199)"><g><path d="M 9.515625 -7.609375 C 10.429688 -7.609375 11.066406 -7.328125 11.421875 -6.765625 C 11.773438 -6.203125 11.953125 -5.421875 11.953125 -4.421875 L 11.953125 -0.84375 C 11.953125 -0.601562 11.875 -0.398438 11.71875 -0.234375 C 11.5625 -0.078125 11.363281 0 11.125 0 C 10.882812 0 10.679688 -0.078125 10.515625 -0.234375 C 10.359375 -0.398438 10.28125 -0.601562 10.28125 -0.84375 L 10.28125 -4.421875 C 10.28125 -4.929688 10.179688 -5.332031 9.984375 -5.625 C 9.785156 -5.914062 9.4375 -6.0625 8.9375 -6.0625 C 8.414062 -6.0625 8.003906 -5.90625 7.703125 -5.59375 C 7.410156 -5.289062 7.265625 -4.898438 7.265625 -4.421875 L 7.265625 -0.84375 C 7.265625 -0.601562 7.1875 -0.398438 7.03125 -0.234375 C 6.875 -0.078125 6.675781 0 6.4375 0 C 6.1875 0 5.984375 -0.078125 5.828125 -0.234375 C 5.671875 -0.398438 5.59375 -0.601562 5.59375 -0.84375 L 5.59375 -4.421875 C 5.59375 -4.929688 5.492188 -5.332031 5.296875 -5.625 C 5.097656 -5.914062 4.742188 -6.0625 4.234375 -6.0625 C 3.710938 -6.0625 3.304688 -5.90625 3.015625 -5.59375 C 2.722656 -5.289062 2.578125 -4.898438 2.578125 -4.421875 L 2.578125 -0.84375 C 2.578125 -0.601562 2.5 -0.398438 2.34375 -0.234375 C 2.1875 -0.078125 1.988281 0 1.75 0 C 1.5 0 1.296875 -0.078125 1.140625 -0.234375 C 0.984375 -0.398438 0.90625 -0.601562 0.90625 -0.84375 L 0.90625 -6.609375 C 0.90625 -6.859375 0.984375 -7.0625 1.140625 -7.21875 C 1.296875 -7.382812 1.5 -7.46875 1.75 -7.46875 C 1.988281 -7.46875 2.1875 -7.382812 2.34375 -7.21875 C 2.5 -7.0625 2.578125 -6.859375 2.578125 -6.609375 L 2.578125 -6.390625 C 2.828125 -6.722656 3.144531 -7.007812 3.53125 -7.25 C 3.914062 -7.488281 4.347656 -7.609375 4.828125 -7.609375 C 5.992188 -7.609375 6.742188 -7.09375 7.078125 -6.0625 C 7.285156 -6.457031 7.601562 -6.8125 8.03125 -7.125 C 8.46875 -7.445312 8.960938 -7.609375 9.515625 -7.609375 Z M 9.515625 -7.609375 "/></g></g></g><g fill="#5271ff" fill-opacity="1"><g transform="translate(134.420498, 90.271199)"><g><path d="M 4.765625 -7.609375 C 5.410156 -7.609375 5.992188 -7.441406 6.515625 -7.109375 C 7.035156 -6.773438 7.445312 -6.316406 7.75 -5.734375 C 8.050781 -5.148438 8.203125 -4.484375 8.203125 -3.734375 C 8.203125 -2.992188 8.050781 -2.328125 7.75 -1.734375 C 7.457031 -1.140625 7.050781 -0.675781 6.53125 -0.34375 C 6.019531 -0.0195312 5.453125 0.140625 4.828125 0.140625 C 4.378906 0.140625 3.957031 0.0507812 3.5625 -0.125 C 3.164062 -0.3125 2.835938 -0.535156 2.578125 -0.796875 L 2.578125 1.9375 C 2.578125 2.175781 2.5 2.378906 2.34375 2.546875 C 2.1875 2.710938 1.988281 2.796875 1.75 2.796875 C 1.5 2.796875 1.296875 2.710938 1.140625 2.546875 C 0.984375 2.390625 0.90625 2.1875 0.90625 1.9375 L 0.90625 -6.609375 C 0.90625 -6.859375 0.984375 -7.0625 1.140625 -7.21875 C 1.296875 -7.382812 1.5 -7.46875 1.75 -7.46875 C 1.988281 -7.46875 2.1875 -7.382812 2.34375 -7.21875 C 2.5 -7.0625 2.578125 -6.859375 2.578125 -6.609375 L 2.578125 -6.5625 C 2.804688 -6.84375 3.117188 -7.085938 3.515625 -7.296875 C 3.910156 -7.503906 4.328125 -7.609375 4.765625 -7.609375 Z M 4.5625 -1.390625 C 5.15625 -1.390625 5.640625 -1.613281 6.015625 -2.0625 C 6.398438 -2.507812 6.59375 -3.066406 6.59375 -3.734375 C 6.59375 -4.410156 6.40625 -4.96875 6.03125 -5.40625 C 5.65625 -5.84375 5.164062 -6.0625 4.5625 -6.0625 C 3.957031 -6.0625 3.460938 -5.84375 3.078125 -5.40625 C 2.703125 -4.96875 2.515625 -4.410156 2.515625 -3.734375 C 2.515625 -3.066406 2.703125 -2.507812 3.078125 -2.0625 C 3.460938 -1.613281 3.957031 -1.390625 4.5625 -1.390625 Z M 4.5625 -1.390625 "/></g></g></g><g fill="#5271ff" fill-opacity="1"><g transform="translate(142.690252, 90.271199)"><g><path d="M 2.71875 -0.84375 C 2.71875 -0.601562 2.632812 -0.398438 2.46875 -0.234375 C 2.3125 -0.078125 2.113281 0 1.875 0 C 1.632812 0 1.4375 -0.078125 1.28125 -0.234375 C 1.125 -0.398438 1.046875 -0.601562 1.046875 -0.84375 L 1.046875 -9.46875 C 1.046875 -9.71875 1.125 -9.921875 1.28125 -10.078125 C 1.445312 -10.242188 1.648438 -10.328125 1.890625 -10.328125 C 2.128906 -10.328125 2.328125 -10.242188 2.484375 -10.078125 C 2.640625 -9.921875 2.71875 -9.71875 2.71875 -9.46875 Z M 2.71875 -0.84375 "/></g></g></g><g fill="#5271ff" fill-opacity="1"><g transform="translate(146.037133, 90.271199)"><g><path d="M 7.609375 -3.90625 C 7.597656 -3.6875 7.507812 -3.503906 7.34375 -3.359375 C 7.175781 -3.222656 6.976562 -3.15625 6.75 -3.15625 L 2.15625 -3.15625 C 2.257812 -2.601562 2.507812 -2.171875 2.90625 -1.859375 C 3.3125 -1.546875 3.765625 -1.390625 4.265625 -1.390625 C 4.648438 -1.390625 4.945312 -1.425781 5.15625 -1.5 C 5.375 -1.570312 5.546875 -1.644531 5.671875 -1.71875 C 5.796875 -1.800781 5.882812 -1.859375 5.9375 -1.890625 C 6.101562 -1.972656 6.257812 -2.015625 6.40625 -2.015625 C 6.601562 -2.015625 6.769531 -1.941406 6.90625 -1.796875 C 7.039062 -1.660156 7.109375 -1.5 7.109375 -1.3125 C 7.109375 -1.0625 6.976562 -0.832031 6.71875 -0.625 C 6.457031 -0.414062 6.109375 -0.234375 5.671875 -0.078125 C 5.234375 0.0664062 4.796875 0.140625 4.359375 0.140625 C 3.578125 0.140625 2.894531 -0.0195312 2.3125 -0.34375 C 1.726562 -0.675781 1.273438 -1.125 0.953125 -1.6875 C 0.640625 -2.257812 0.484375 -2.90625 0.484375 -3.625 C 0.484375 -4.425781 0.648438 -5.128906 0.984375 -5.734375 C 1.328125 -6.335938 1.769531 -6.800781 2.3125 -7.125 C 2.863281 -7.445312 3.453125 -7.609375 4.078125 -7.609375 C 4.691406 -7.609375 5.269531 -7.4375 5.8125 -7.09375 C 6.351562 -6.757812 6.785156 -6.304688 7.109375 -5.734375 C 7.441406 -5.171875 7.609375 -4.5625 7.609375 -3.90625 Z M 4.078125 -6.0625 C 2.992188 -6.0625 2.351562 -5.554688 2.15625 -4.546875 L 5.8125 -4.546875 L 5.8125 -4.640625 C 5.78125 -5.035156 5.59375 -5.367188 5.25 -5.640625 C 4.90625 -5.921875 4.515625 -6.0625 4.078125 -6.0625 Z M 4.078125 -6.0625 "/></g></g></g><g fill="#5271ff" fill-opacity="1"><g transform="translate(111.201061, 104.286176)"><g><path d="M 7.46875 -9.765625 C 7.71875 -9.765625 7.921875 -9.691406 8.078125 -9.546875 C 8.234375 -9.398438 8.3125 -9.203125 8.3125 -8.953125 C 8.3125 -8.710938 8.234375 -8.519531 8.078125 -8.375 C 7.921875 -8.226562 7.71875 -8.15625 7.46875 -8.15625 L 5.28125 -8.15625 L 5.28125 -0.84375 C 5.28125 -0.601562 5.191406 -0.398438 5.015625 -0.234375 C 4.835938 -0.078125 4.617188 0 4.359375 0 C 4.097656 0 3.878906 -0.078125 3.703125 -0.234375 C 3.535156 -0.398438 3.453125 -0.601562 3.453125 -0.84375 L 3.453125 -8.15625 L 1.265625 -8.15625 C 1.015625 -8.15625 0.8125 -8.226562 0.65625 -8.375 C 0.5 -8.53125 0.421875 -8.726562 0.421875 -8.96875 C 0.421875 -9.207031 0.5 -9.398438 0.65625 -9.546875 C 0.820312 -9.691406 1.023438 -9.765625 1.265625 -9.765625 Z M 7.46875 -9.765625 "/></g></g></g><g fill="#5271ff" fill-opacity="1"><g transform="translate(119.512653, 104.286176)"><g><path d="M 8.078125 -3.71875 C 8.078125 -2.976562 7.910156 -2.3125 7.578125 -1.71875 C 7.242188 -1.132812 6.785156 -0.675781 6.203125 -0.34375 C 5.617188 -0.0195312 4.976562 0.140625 4.28125 0.140625 C 3.570312 0.140625 2.929688 -0.0195312 2.359375 -0.34375 C 1.785156 -0.675781 1.328125 -1.132812 0.984375 -1.71875 C 0.648438 -2.3125 0.484375 -2.976562 0.484375 -3.71875 C 0.484375 -4.46875 0.648438 -5.132812 0.984375 -5.71875 C 1.328125 -6.3125 1.785156 -6.773438 2.359375 -7.109375 C 2.929688 -7.441406 3.570312 -7.609375 4.28125 -7.609375 C 4.976562 -7.609375 5.617188 -7.441406 6.203125 -7.109375 C 6.785156 -6.773438 7.242188 -6.3125 7.578125 -5.71875 C 7.910156 -5.132812 8.078125 -4.46875 8.078125 -3.71875 Z M 6.40625 -3.71875 C 6.40625 -4.175781 6.304688 -4.582031 6.109375 -4.9375 C 5.921875 -5.300781 5.664062 -5.578125 5.34375 -5.765625 C 5.03125 -5.960938 4.675781 -6.0625 4.28125 -6.0625 C 3.894531 -6.0625 3.539062 -5.960938 3.21875 -5.765625 C 2.894531 -5.578125 2.632812 -5.300781 2.4375 -4.9375 C 2.25 -4.582031 2.15625 -4.175781 2.15625 -3.71875 C 2.15625 -3.269531 2.25 -2.867188 2.4375 -2.515625 C 2.632812 -2.160156 2.894531 -1.882812 3.21875 -1.6875 C 3.539062 -1.488281 3.894531 -1.390625 4.28125 -1.390625 C 4.675781 -1.390625 5.03125 -1.488281 5.34375 -1.6875 C 5.664062 -1.882812 5.921875 -2.160156 6.109375 -2.515625 C 6.304688 -2.867188 6.40625 -3.269531 6.40625 -3.71875 Z M 6.40625 -3.71875 "/></g></g></g><g fill="#5271ff" fill-opacity="1"><g transform="translate(127.656895, 104.286176)"><g><path d="M 6.953125 -10.328125 C 7.191406 -10.328125 7.390625 -10.242188 7.546875 -10.078125 C 7.703125 -9.921875 7.78125 -9.71875 7.78125 -9.46875 L 7.78125 -0.84375 C 7.78125 -0.601562 7.703125 -0.398438 7.546875 -0.234375 C 7.390625 -0.078125 7.191406 0 6.953125 0 C 6.703125 0 6.5 -0.078125 6.34375 -0.234375 C 6.195312 -0.390625 6.117188 -0.59375 6.109375 -0.84375 C 5.878906 -0.570312 5.566406 -0.335938 5.171875 -0.140625 C 4.773438 0.046875 4.359375 0.140625 3.921875 0.140625 C 3.273438 0.140625 2.691406 -0.0195312 2.171875 -0.34375 C 1.648438 -0.675781 1.238281 -1.132812 0.9375 -1.71875 C 0.632812 -2.3125 0.484375 -2.976562 0.484375 -3.71875 C 0.484375 -4.46875 0.628906 -5.132812 0.921875 -5.71875 C 1.222656 -6.3125 1.632812 -6.773438 2.15625 -7.109375 C 2.675781 -7.441406 3.242188 -7.609375 3.859375 -7.609375 C 4.304688 -7.609375 4.722656 -7.523438 5.109375 -7.359375 C 5.503906 -7.191406 5.835938 -6.984375 6.109375 -6.734375 L 6.109375 -9.46875 C 6.109375 -9.71875 6.1875 -9.921875 6.34375 -10.078125 C 6.5 -10.242188 6.703125 -10.328125 6.953125 -10.328125 Z M 4.125 -1.390625 C 4.726562 -1.390625 5.222656 -1.609375 5.609375 -2.046875 C 5.992188 -2.492188 6.1875 -3.050781 6.1875 -3.71875 C 6.1875 -4.394531 5.992188 -4.953125 5.609375 -5.390625 C 5.222656 -5.835938 4.726562 -6.0625 4.125 -6.0625 C 3.53125 -6.0625 3.039062 -5.835938 2.65625 -5.390625 C 2.28125 -4.953125 2.09375 -4.394531 2.09375 -3.71875 C 2.09375 -3.050781 2.28125 -2.492188 2.65625 -2.046875 C 3.03125 -1.609375 3.519531 -1.390625 4.125 -1.390625 Z M 4.125 -1.390625 "/></g></g></g><g fill="#5271ff" fill-opacity="1"><g transform="translate(135.926647, 104.286176)"><g><path d="M 8.078125 -3.71875 C 8.078125 -2.976562 7.910156 -2.3125 7.578125 -1.71875 C 7.242188 -1.132812 6.785156 -0.675781 6.203125 -0.34375 C 5.617188 -0.0195312 4.976562 0.140625 4.28125 0.140625 C 3.570312 0.140625 2.929688 -0.0195312 2.359375 -0.34375 C 1.785156 -0.675781 1.328125 -1.132812 0.984375 -1.71875 C 0.648438 -2.3125 0.484375 -2.976562 0.484375 -3.71875 C 0.484375 -4.46875 0.648438 -5.132812 0.984375 -5.71875 C 1.328125 -6.3125 1.785156 -6.773438 2.359375 -7.109375 C 2.929688 -7.441406 3.570312 -7.609375 4.28125 -7.609375 C 4.976562 -7.609375 5.617188 -7.441406 6.203125 -7.109375 C 6.785156 -6.773438 7.242188 -6.3125 7.578125 -5.71875 C 7.910156 -5.132812 8.078125 -4.46875 8.078125 -3.71875 Z M 6.40625 -3.71875 C 6.40625 -4.175781 6.304688 -4.582031 6.109375 -4.9375 C 5.921875 -5.300781 5.664062 -5.578125 5.34375 -5.765625 C 5.03125 -5.960938 4.675781 -6.0625 4.28125 -6.0625 C 3.894531 -6.0625 3.539062 -5.960938 3.21875 -5.765625 C 2.894531 -5.578125 2.632812 -5.300781 2.4375 -4.9375 C 2.25 -4.582031 2.15625 -4.175781 2.15625 -3.71875 C 2.15625 -3.269531 2.25 -2.867188 2.4375 -2.515625 C 2.632812 -2.160156 2.894531 -1.882812 3.21875 -1.6875 C 3.539062 -1.488281 3.894531 -1.390625 4.28125 -1.390625 C 4.675781 -1.390625 5.03125 -1.488281 5.34375 -1.6875 C 5.664062 -1.882812 5.921875 -2.160156 6.109375 -2.515625 C 6.304688 -2.867188 6.40625 -3.269531 6.40625 -3.71875 Z M 6.40625 -3.71875 "/></g></g></g><g fill="#5271ff" fill-opacity="1"><g transform="translate(144.070889, 104.286176)"><g><path d="M 0.46875 -1.15625 C 0.382812 -1.269531 0.34375 -1.410156 0.34375 -1.578125 C 0.34375 -1.816406 0.46875 -2.019531 0.71875 -2.1875 C 0.84375 -2.269531 0.972656 -2.3125 1.109375 -2.3125 C 1.304688 -2.3125 1.492188 -2.222656 1.671875 -2.046875 C 1.953125 -1.765625 2.242188 -1.550781 2.546875 -1.40625 C 2.847656 -1.269531 3.210938 -1.203125 3.640625 -1.203125 C 4.367188 -1.222656 4.734375 -1.492188 4.734375 -2.015625 C 4.734375 -2.285156 4.609375 -2.488281 4.359375 -2.625 C 4.109375 -2.769531 3.722656 -2.914062 3.203125 -3.0625 C 2.671875 -3.207031 2.234375 -3.351562 1.890625 -3.5 C 1.546875 -3.644531 1.25 -3.867188 1 -4.171875 C 0.757812 -4.472656 0.640625 -4.882812 0.640625 -5.40625 C 0.640625 -5.84375 0.765625 -6.226562 1.015625 -6.5625 C 1.273438 -6.894531 1.613281 -7.148438 2.03125 -7.328125 C 2.445312 -7.515625 2.882812 -7.609375 3.34375 -7.609375 C 3.820312 -7.609375 4.296875 -7.519531 4.765625 -7.34375 C 5.242188 -7.164062 5.617188 -6.90625 5.890625 -6.5625 C 6.003906 -6.40625 6.0625 -6.238281 6.0625 -6.0625 C 6.0625 -5.84375 5.972656 -5.664062 5.796875 -5.53125 C 5.671875 -5.425781 5.523438 -5.375 5.359375 -5.375 C 5.148438 -5.375 4.984375 -5.4375 4.859375 -5.5625 C 4.691406 -5.769531 4.472656 -5.929688 4.203125 -6.046875 C 3.941406 -6.171875 3.644531 -6.234375 3.3125 -6.234375 C 2.601562 -6.234375 2.25 -5.976562 2.25 -5.46875 C 2.25 -5.257812 2.3125 -5.09375 2.4375 -4.96875 C 2.570312 -4.84375 2.738281 -4.742188 2.9375 -4.671875 C 3.132812 -4.609375 3.414062 -4.523438 3.78125 -4.421875 C 4.28125 -4.285156 4.695312 -4.140625 5.03125 -3.984375 C 5.375 -3.835938 5.660156 -3.609375 5.890625 -3.296875 C 6.117188 -2.992188 6.234375 -2.59375 6.234375 -2.09375 C 6.234375 -1.632812 6.097656 -1.234375 5.828125 -0.890625 C 5.554688 -0.554688 5.207031 -0.300781 4.78125 -0.125 C 4.363281 0.0507812 3.929688 0.140625 3.484375 0.140625 C 2.867188 0.140625 2.296875 0.0390625 1.765625 -0.15625 C 1.242188 -0.363281 0.8125 -0.695312 0.46875 -1.15625 Z M 0.46875 -1.15625 "/></g></g></g></svg>